<svg xmlns="http://www.w3.org/2000/svg" width="1200" height="500" viewBox="0 0 1200 500">
  <defs>
    <!-- グラデーション定義 -->
    <linearGradient id="bgGradient" x1="0%" y1="0%" x2="100%" y2="100%">
      <stop offset="0%" style="stop-color:#00729f;stop-opacity:0.9" /> <!-- SMEAIサイトの青 -->
      <stop offset="100%" style="stop-color:#00466d;stop-opacity:0.95" /> <!-- SMEAIサイトの濃い青 -->
    </linearGradient>
    
    <!-- 粒子パターン -->
    <pattern id="dotPattern" width="40" height="40" patternUnits="userSpaceOnUse">
      <circle cx="20" cy="20" r="1.5" fill="#ffffff" opacity="0.4" />
    </pattern>
    
    <!-- 輝く点のフィルター -->
    <filter id="glow" x="-50%" y="-50%" width="200%" height="200%">
      <feGaussianBlur stdDeviation="2" result="blur" />
      <feComposite in="SourceGraphic" in2="blur" operator="over" />
    </filter>
    
    <!-- 大阪城シルエット -->
    <symbol id="osakaCastle" viewBox="0 0 100 120">
      <path d="M50,10 L60,20 L60,30 L70,40 L70,50 L80,60 L80,110 L20,110 L20,60 L30,50 L30,40 L40,30 L40,20 Z" fill="#FF5722" opacity="0.15"/>
    </symbol>
    
    <!-- 通天閣シルエット -->
    <symbol id="tsutenkaku" viewBox="0 0 60 120">
      <path d="M30,10 L40,30 L45,30 L45,60 L35,60 L35,100 L25,100 L25,60 L15,60 L15,30 L20,30 Z" fill="#FF5722" opacity="0.15"/>
    </symbol>
    
    <!-- 大阪らしさを加えるパターン -->
    <pattern id="osakaPattern" width="200" height="200" patternUnits="userSpaceOnUse">
      <use href="#osakaCastle" x="50" y="50" width="100" height="120" />
      <use href="#tsutenkaku" x="0" y="50" width="60" height="120" />
    </pattern>
    
    <!-- AIノードアニメーション用 -->
    <filter id="blur" x="0" y="0" width="200%" height="200%">
      <feGaussianBlur in="SourceGraphic" stdDeviation="3" />
    </filter>
  </defs>
  
  <!-- 背景グラデーション -->
  <rect width="1200" height="500" fill="url(#bgGradient)" />
  
  <!-- 大阪パターンオーバーレイ -->
  <rect width="1200" height="500" fill="url(#osakaPattern)" opacity="0.1" />
  
  <!-- 抽象的なデータフローを表す線 -->
  <g opacity="0.2">
    <path d="M0,250 C300,150 500,350 800,200 S1100,250 1200,150" stroke="#FFC706" stroke-width="1" fill="none" />
    <path d="M0,300 C250,200 550,400 750,300 S1050,200 1200,350" stroke="#FFC706" stroke-width="1" fill="none" />
    <path d="M0,150 C350,250 650,100 800,300 S1000,200 1200,250" stroke="#FFC706" stroke-width="1" fill="none" />
  </g>
  
  <!-- 点パターンオーバーレイ -->
  <rect width="1200" height="500" fill="url(#dotPattern)" />
  
  <!-- AIニューラルネットワークを表現 -->
  <g opacity="0.8">
    <!-- ノード -->
    <circle cx="200" cy="150" r="4" fill="#ffffff" filter="url(#glow)" />
    <circle cx="350" cy="100" r="3" fill="#ffffff" filter="url(#glow)" />
    <circle cx="480" cy="220" r="4" fill="#ffffff" filter="url(#glow)" />
    <circle cx="600" cy="180" r="3" fill="#ffffff" filter="url(#glow)" />
    <circle cx="750" cy="120" r="4" fill="#ffffff" filter="url(#glow)" />
    <circle cx="880" cy="200" r="3" fill="#ffffff" filter="url(#glow)" />
    <circle cx="1000" cy="150" r="4" fill="#ffffff" filter="url(#glow)" />
    
    <circle cx="250" cy="300" r="3" fill="#ffffff" filter="url(#glow)" />
    <circle cx="400" cy="350" r="4" fill="#ffffff" filter="url(#glow)" />
    <circle cx="550" cy="280" r="3" fill="#ffffff" filter="url(#glow)" />
    <circle cx="700" cy="320" r="4" fill="#ffffff" filter="url(#glow)" />
    <circle cx="850" cy="360" r="3" fill="#ffffff" filter="url(#glow)" />
    <circle cx="950" cy="290" r="4" fill="#ffffff" filter="url(#glow)" />
    
    <!-- 接続線 -->
    <line x1="200" y1="150" x2="350" y2="100" stroke="#ffffff" stroke-width="1" opacity="0.5" />
    <line x1="200" y1="150" x2="250" y2="300" stroke="#ffffff" stroke-width="1" opacity="0.5" />
    <line x1="350" y1="100" x2="480" y2="220" stroke="#ffffff" stroke-width="1" opacity="0.5" />
    <line x1="350" y1="100" x2="400" y2="350" stroke="#ffffff" stroke-width="1" opacity="0.5" />
    <line x1="480" y1="220" x2="600" y2="180" stroke="#ffffff" stroke-width="1" opacity="0.5" />
    <line x1="480" y1="220" x2="550" y2="280" stroke="#ffffff" stroke-width="1" opacity="0.5" />
    <line x1="600" y1="180" x2="750" y2="120" stroke="#ffffff" stroke-width="1" opacity="0.5" />
    <line x1="600" y1="180" x2="700" y2="320" stroke="#ffffff" stroke-width="1" opacity="0.5" />
    <line x1="750" y1="120" x2="880" y2="200" stroke="#ffffff" stroke-width="1" opacity="0.5" />
    <line x1="750" y1="120" x2="850" y2="360" stroke="#ffffff" stroke-width="1" opacity="0.5" />
    <line x1="880" y1="200" x2="1000" y2="150" stroke="#ffffff" stroke-width="1" opacity="0.5" />
    <line x1="880" y1="200" x2="950" y2="290" stroke="#ffffff" stroke-width="1" opacity="0.5" />
    
    <line x1="250" y1="300" x2="400" y2="350" stroke="#ffffff" stroke-width="1" opacity="0.5" />
    <line x1="400" y1="350" x2="550" y2="280" stroke="#ffffff" stroke-width="1" opacity="0.5" />
    <line x1="550" y1="280" x2="700" y2="320" stroke="#ffffff" stroke-width="1" opacity="0.5" />
    <line x1="700" y1="320" x2="850" y2="360" stroke="#ffffff" stroke-width="1" opacity="0.5" />
    <line x1="850" y1="360" x2="950" y2="290" stroke="#ffffff" stroke-width="1" opacity="0.5" />
  </g>
  
  <!-- 大阪らしさを表現する装飾 -->
  <g opacity="0.15">
    <!-- 大阪城と通天閣のシンボル -->
    <use href="#osakaCastle" x="900" y="250" width="100" height="120" />
    <use href="#tsutenkaku" x="100" y="250" width="60" height="120" />
    
    <!-- あべのハルカスシンボル -->
    <rect x="700" y="250" width="40" height="200" fill="#FF5722" opacity="0.5" />
  </g>
  
  <!-- AIの抽象的な回路パターン -->
  <g opacity="0.3">
    <path d="M100,50 L150,50 L150,70 L200,70 L200,90 L250,90 C270,90 270,110 290,110 L350,110" 
          stroke="#FFC706" stroke-width="2" fill="none" />
    <path d="M400,50 L450,50 L450,70 L500,70 L500,90 L550,90 C570,90 570,110 590,110 L650,110" 
          stroke="#FFC706" stroke-width="2" fill="none" />
    <path d="M700,50 L750,50 L750,70 L800,70 L800,90 L850,90 C870,90 870,110 890,110 L950,110" 
          stroke="#FFC706" stroke-width="2" fill="none" />
    
    <path d="M50,400 L100,400 L100,380 L150,380 L150,360 L200,360 C220,360 220,340 240,340 L300,340" 
          stroke="#FFC706" stroke-width="2" fill="none" />
    <path d="M350,400 L400,400 L400,380 L450,380 L450,360 L500,360 C520,360 520,340 540,340 L600,340" 
          stroke="#FFC706" stroke-width="2" fill="none" />
    <path d="M650,400 L700,400 L700,380 L750,380 L750,360 L800,360 C820,360 820,340 840,340 L900,340" 
          stroke="#FFC706" stroke-width="2" fill="none" />
  </g>
  
  <!-- デジタルレインエフェクト（マトリックス風） -->
  <g opacity="0.15">
    <text x="120" y="150" font-family="monospace" font-size="10" fill="#ffffff">01001010</text>
    <text x="320" y="220" font-family="monospace" font-size="10" fill="#ffffff">10110001</text>
    <text x="520" y="150" font-family="monospace" font-size="10" fill="#ffffff">01110110</text>
    <text x="720" y="220" font-family="monospace" font-size="10" fill="#ffffff">10001101</text>
    <text x="920" y="150" font-family="monospace" font-size="10" fill="#ffffff">01101001</text>
    
    <text x="220" y="350" font-family="monospace" font-size="10" fill="#ffffff">めっちゃ</text>
    <text x="420" y="300" font-family="monospace" font-size="10" fill="#ffffff">ええやん</text>
    <text x="620" y="350" font-family="monospace" font-size="10" fill="#ffffff">AI</text>
    <text x="820" y="300" font-family="monospace" font-size="10" fill="#ffffff">便利やん</text>
  </g>
</svg>