<svg xmlns="http://www.w3.org/2000/svg" width="100" height="100" viewBox="0 0 100 100">
  <circle cx="50" cy="50" r="45" fill="#f1f9ff" />
  <path d="M65 35 L60 35 L60 30 C60 25 55 20 50 20 C45 20 40 25 40 30 L40 35 L35 35 C33 35 30 37 30 40 L30 70 C30 73 33 75 35 75 L65 75 C67 75 70 73 70 70 L70 40 C70 37 67 35 65 35 Z M45 30 C45 28 47 25 50 25 C53 25 55 28 55 30 L55 35 L45 35 L45 30 Z" fill="#3498db" />
  <circle cx="50" cy="55" r="8" fill="#f1f9ff" />
  <path d="M50 65 L50 50" stroke="#f1f9ff" stroke-width="3" />
</svg>